<svg xmlns="http://www.w3.org/2000/svg" width="272.18mm" height="137.16mm" viewBox="0 0 771.54 388.79"><defs><style>.cls-1{fill:#07529f;}</style></defs><g id="Capa_2" data-name="Capa 2"><g id="Capa_1-2" data-name="Capa 1"><path class="cls-1" d="M218.66,49.69s31.34-.25,42.52-8.19c0,0,10.38-4.68,14.85-30.92,0,0-.61,26.86-12.82,33.16,0,0-10.16,7.43-44.55,5.95"/><path class="cls-1" d="M110.9,193.36q6.7,9.33,6.7,22.32c0,8.92-2.24,16.1-6.77,21.53a35,35,0,0,1-11.14,8.33q11.19,4.08,16.89,12.89c3.8,5.88,5.69,13,5.69,21.43a42.58,42.58,0,0,1-6.51,23.3A40.19,40.19,0,0,1,88.88,322a99.87,99.87,0,0,1-20.65,2H2.34V177.78H73q26.76.42,37.9,15.58m-79.4,9.82v32.24H67c6.35,0,11.5-1.19,15.46-3.62s5.94-6.71,5.94-12.84q0-10.23-7.85-13.5-6.78-2.28-17.28-2.28Zm0,56.44v39H67q9.51,0,14.81-2.58,9.6-4.74,9.6-18.25,0-11.4-9.31-15.67-5.2-2.37-14.61-2.48Z"/><path class="cls-1" d="M174.46,215.87v65.19c0,6.13.72,10.77,2.16,13.88,2.57,5.5,7.61,8.22,15.11,8.22q14.39,0,19.73-11.69,2.78-6.36,2.77-16.78V215.87h28.68V324H215.43V308.73c-.28.32-.94,1.32-2,3a19,19,0,0,1-3.76,4.36,38.78,38.78,0,0,1-12.8,8.14,43.5,43.5,0,0,1-14.5,2.18q-23.94,0-32.24-17.25-4.66-9.54-4.66-28.07V215.87Z"/><path class="cls-1" d="M292.3,289.48c.6,5,1.89,8.6,3.88,10.71q5.31,5.65,19.54,5.67c5.59,0,10-.84,13.31-2.49s4.94-4.12,4.94-7.44a8,8,0,0,0-4-7.24q-4-2.49-29.58-8.54-18.44-4.54-26-11.4t-7.54-19.44q0-15,11.79-25.75t33.16-10.76q20.26,0,33,8.09t14.67,27.91H331.3a16.86,16.86,0,0,0-3.09-8.61q-4.69-5.77-15.92-5.77-9.27,0-13.17,2.89t-3.94,6.75a7.33,7.33,0,0,0,4.18,7q4.17,2.31,29.52,7.85,16.88,4,25.32,12a27.29,27.29,0,0,1,8.33,20.36q0,16.05-12,26.22t-37,10.17q-25.54,0-37.72-10.76t-12.17-27.43Z"/><path class="cls-1" d="M483.81,260.72Q471,271.42,447.14,271.43H416.7V324H386.34V177.79h62.78q21.7,0,34.63,11.32c8.6,7.52,12.91,19.21,12.91,35q0,25.91-12.85,36.62m-23.32-52.67c-3.88-3.25-9.28-4.87-16.26-4.87H416.7v43h27.53c7,0,12.38-1.75,16.26-5.25s5.81-9.07,5.81-16.67-1.94-13-5.81-16.26"/><path class="cls-1" d="M609,310.77q-13.69,16.91-41.56,16.9t-41.55-16.9q-13.71-16.89-13.7-40.68,0-23.4,13.7-40.53t41.55-17.16q27.88,0,41.56,17.16t13.69,40.53q0,23.79-13.69,40.68m-22.61-15.62q6.63-8.82,6.64-25.06t-6.64-25q-6.67-8.74-19-8.75c-8.26,0-14.65,2.92-19.1,8.75s-6.69,14.19-6.69,25,2.22,19.18,6.69,25.06,10.84,8.81,19.1,8.81,14.6-2.94,19-8.81"/><path class="cls-1" d="M703,213.36l2.44.14v29c-1.79-.19-3.36-.33-4.78-.4s-2.5-.1-3.37-.1q-17,0-22.9,11.13-3.28,6.24-3.27,19.24V324H642.67V215.87h27v18.86q6.54-10.81,11.4-14.78,7.92-6.66,20.64-6.65a12.44,12.44,0,0,1,1.33.06"/><path class="cls-1" d="M710.93,237V216.88H726V186.71h28v30.17h17.57V237H754v57.16c0,4.42.57,7.18,1.69,8.27s4.56,1.63,10.31,1.63c.87,0,1.77,0,2.74,0s1.9-.09,2.83-.15V325l-13.39.5q-20,.69-27.38-6.94c-3.18-3.24-4.77-8.25-4.77-15V237Z"/><path class="cls-1" d="M194.25,112.51,222.8,111s-2-28.75,44.87-28.75l83,2.17-84.32.66s-39.44-3.27-40.31,28.54Z"/><path class="cls-1" d="M240.66,92.47c-19,14.82-5.23,29.19,1.53,30.93,0,0,12,5.67,25.48-7.19,0,0-12.58,16.66-29.33,8.85-4.46-2.09-13.53-12.15-7.32-24.46,1.49-2.91,4.67-6,9.64-8.13"/><path class="cls-1" d="M441.27,92.47c-19,14.82-5.22,29.19,1.52,30.93,0,0,12,5.67,25.5-7.19,0,0-12.59,16.66-29.34,8.85-4.47-2.09-13.52-12.15-7.29-24.46,1.47-2.91,4.64-6,9.61-8.13"/><path class="cls-1" d="M258.11,88.4s14.36,8.24,13.25,24.79H425.92s-4-27,31.13-29.6l77.18-4.74-71.89,1.8s-41.71-1-39.17,28.85H274.66s-.84-17.5-16.55-21.1"/><path class="cls-1" d="M453.7,86.68s19.58,3.76,19.58,26.51h72s1.46-12.93,3.08-17.72,2.64-17.21,0-24.3c-2.5-6.7-10.05-37,.9-66.7C550.61.79,530.9,31.67,545,70.36c0,0,3.94,14.51-.48,25.67a57.69,57.69,0,0,0-3.23,13.77H476.25s-3.69-23.43-22.55-23.12"/><path class="cls-1" d="M181.24,109.8s-5.68-19.68-1-30.06a47,47,0,0,0,12-2.64c5.91-2.23,8.95-4.27,16.07-17.69S223.55,9.57,223.55,9.57,211,49.06,198.29,65.63c-6.09,7.93-14.41,10.44-23.15,11.47,0,0-1,24.31,6.1,32.7"/><path class="cls-1" d="M271.14,56s132.62,0,229.05-9c0,0,14.65.21,23.18-36.81,0,0-.4,20.55-13.22,37.43,0,0-2.84,3.24-10.37,3,0,0-105.36,9.36-228.64,5.3"/><path class="cls-1" d="M272.47,53.3s12.3-30.51,29.2-32.75,87.51-6.92,204.23-8.74c0,0-112.49-2.65-203.43,5.28,0,0-21.36-.4-30,36.21"/><path class="cls-1" d="M180.22,68.14S193,44.58,204,29c3.12-4.45,17.26-27.71,44.76-24.88,53,5.47,52.87,6.27,113.31,5.09,0,0,155.81-2.43,185.71-7.73,0,0-205.65,6.71-233.92,4.67,0,0-35-1.62-54.11-4.67,0,0-22.88-5.58-39.72,5.32-4.27,2.74-24.6,20.31-39.82,61.39"/><polygon class="cls-1" points="12.27 351.6 0 351.6 0 345.01 32.53 345.01 32.53 351.6 20.13 351.6 20.13 388.1 12.27 388.1 12.27 351.6"/><path class="cls-1" d="M37.58,345.59a74.81,74.81,0,0,1,11.88-.89c6.21,0,10.42,1,13.29,3.45a10.88,10.88,0,0,1,3.71,8.63,11.51,11.51,0,0,1-7.79,10.8v.19c3.07,1.15,4.92,4.15,6,8.31,1.35,5.37,2.5,10.34,3.4,12H59.94a61.55,61.55,0,0,1-2.87-10.16c-1.21-5.63-3.26-7.41-7.73-7.54h-4v17.7H37.58Zm7.79,19.05H50c5.3,0,8.63-2.81,8.63-7.09,0-4.74-3.33-6.91-8.44-6.91a22.65,22.65,0,0,0-4.86.39Z"/><path class="cls-1" d="M83,375.89,79.3,388.1H71.18L85,345H95l14,43.08h-8.44l-3.9-12.21Zm12.33-5.95L92,359.33c-.84-2.62-1.54-5.55-2.18-8.05h-.12c-.65,2.5-1.28,5.5-2,8.05l-3.33,10.61Z"/><path class="cls-1" d="M115,388.09V345h9l11.12,18.47a120.73,120.73,0,0,1,7.35,14.44h.12c-.51-5.75-.7-11.31-.7-17.9V345h7.28v43.07H141l-11.25-18.91a149.67,149.67,0,0,1-7.73-14.9l-.19.07c.31,5.56.38,11.24.38,18.34v15.4Z"/><path class="cls-1" d="M158,379.53a21.74,21.74,0,0,0,10.42,2.75c5.05,0,7.85-2.37,7.85-5.89,0-3.25-2.16-5.18-7.66-7.15-7.1-2.56-11.63-6.33-11.63-12.53,0-7,5.88-12.39,15.21-12.39a22.79,22.79,0,0,1,10.36,2.17l-1.92,6.32a18.27,18.27,0,0,0-8.57-2.05c-5,0-7.15,2.69-7.15,5.18,0,3.33,2.49,4.86,8.24,7.1,7.48,2.81,11.12,6.59,11.12,12.78,0,6.9-5.24,12.9-16.36,12.9-4.54,0-9.27-1.27-11.63-2.67Z"/><path class="cls-1" d="M191.38,345.59a68.32,68.32,0,0,1,12-.89c5.75,0,10,1.21,12.72,3.51a12.16,12.16,0,0,1,4.22,9.52c0,4.09-1.28,7.48-3.71,9.78-3.13,3.13-8.05,4.61-13.61,4.61a22.2,22.2,0,0,1-3.83-.26v16.23h-7.8Zm7.8,20.07A16.05,16.05,0,0,0,203,366c5.87,0,9.46-2.87,9.46-7.93,0-4.79-3.33-7.34-8.76-7.34a21.84,21.84,0,0,0-4.53.38Z"/><path class="cls-1" d="M265.32,366.1c0,14.45-8.76,22.69-20.65,22.69-12.14,0-19.81-9.26-19.81-21.92,0-13.23,8.31-22.56,20.46-22.56,12.58,0,20,9.53,20,21.79m-32.15.64c0,8.76,4.4,15.73,12,15.73s11.89-7,11.89-16c0-8.12-4-15.79-11.89-15.79s-12,7.22-12,16.1"/><path class="cls-1" d="M272.09,345.59A74.62,74.62,0,0,1,284,344.7c6.2,0,10.42,1,13.29,3.45a10.88,10.88,0,0,1,3.71,8.63,11.51,11.51,0,0,1-7.8,10.8v.19c3.07,1.15,4.93,4.15,6,8.31,1.34,5.37,2.49,10.34,3.38,12h-8.11c-.64-1.28-1.66-4.79-2.87-10.16-1.22-5.63-3.27-7.41-7.74-7.54h-4v17.7h-7.79Zm7.79,19.05h4.67c5.3,0,8.62-2.81,8.62-7.09,0-4.74-3.32-6.91-8.43-6.91a22.57,22.57,0,0,0-4.86.39Z"/><polygon class="cls-1" points="317 351.6 304.73 351.6 304.73 345.01 337.26 345.01 337.26 351.6 324.86 351.6 324.86 388.1 317 388.1 317 351.6"/><polygon class="cls-1" points="366.4 368.98 350.17 368.98 350.17 381.64 368.32 381.64 368.32 388.1 342.31 388.1 342.31 345.01 367.36 345.01 367.36 351.47 350.17 351.47 350.17 362.59 366.4 362.59 366.4 368.98"/><path class="cls-1" d="M388.44,345.59a79.92,79.92,0,0,1,12.53-.9c8,0,13.61,1.67,17.57,5,4.16,3.39,6.71,8.5,6.71,15.85,0,7.67-2.62,13.42-6.71,17.13-4.28,3.9-11.12,5.88-19.49,5.88a85.9,85.9,0,0,1-10.61-.57Zm7.86,36.49a28.08,28.08,0,0,0,4.35.2c10.22.06,16.3-5.56,16.3-16.49.06-9.53-5.44-15-15.28-15a25.48,25.48,0,0,0-5.37.45Z"/><polygon class="cls-1" points="456.18 368.98 439.95 368.98 439.95 381.64 458.09 381.64 458.09 388.1 432.08 388.1 432.08 345.01 457.14 345.01 457.14 351.47 439.95 351.47 439.95 362.59 456.18 362.59 456.18 368.98"/><path class="cls-1" d="M478.22,345.59a68.32,68.32,0,0,1,12-.89c5.75,0,10,1.21,12.72,3.51a12.16,12.16,0,0,1,4.22,9.52c0,4.09-1.27,7.48-3.7,9.78-3.14,3.13-8.06,4.61-13.62,4.61a22.4,22.4,0,0,1-3.84-.26v16.23h-7.79ZM486,365.66a16.2,16.2,0,0,0,3.84.32c5.88,0,9.46-2.87,9.46-7.93,0-4.79-3.33-7.34-8.76-7.34a22,22,0,0,0-4.54.38Z"/><polygon class="cls-1" points="538.03 368.98 521.8 368.98 521.8 381.64 539.95 381.64 539.95 388.1 513.93 388.1 513.93 345.01 538.99 345.01 538.99 351.47 521.8 351.47 521.8 362.59 538.03 362.59 538.03 368.98"/><path class="cls-1" d="M546.85,345.59a74.62,74.62,0,0,1,11.88-.89c6.21,0,10.42,1,13.3,3.45a10.9,10.9,0,0,1,3.7,8.63,11.51,11.51,0,0,1-7.8,10.8v.19c3.07,1.15,4.93,4.15,6,8.31,1.34,5.37,2.49,10.34,3.39,12h-8.12a61.55,61.55,0,0,1-2.87-10.16c-1.22-5.63-3.27-7.41-7.73-7.54h-4v17.7h-7.79Zm7.79,19.05h4.67c5.3,0,8.62-2.81,8.62-7.09,0-4.74-3.32-6.91-8.43-6.91a22.57,22.57,0,0,0-4.86.39Z"/><path class="cls-1" d="M583,379.53a21.74,21.74,0,0,0,10.42,2.75c5.05,0,7.86-2.37,7.86-5.89,0-3.25-2.17-5.18-7.67-7.15-7.1-2.56-11.63-6.33-11.63-12.53,0-7,5.88-12.39,15.21-12.39a22.77,22.77,0,0,1,10.35,2.17l-1.92,6.32a18.23,18.23,0,0,0-8.56-2.05c-5,0-7.16,2.69-7.16,5.18,0,3.33,2.49,4.86,8.25,7.1,7.47,2.81,11.12,6.59,11.12,12.78,0,6.9-5.24,12.9-16.37,12.9-4.53,0-9.26-1.27-11.63-2.67Z"/><path class="cls-1" d="M654.59,366.1c0,14.45-8.76,22.69-20.65,22.69-12.14,0-19.81-9.26-19.81-21.92,0-13.23,8.31-22.56,20.45-22.56,12.59,0,20,9.53,20,21.79m-32.15.64c0,8.76,4.41,15.73,11.95,15.73s11.89-7,11.89-16c0-8.12-4-15.79-11.89-15.79s-11.95,7.22-11.95,16.1"/><path class="cls-1" d="M661.35,388.09V345h8.95l11.12,18.47a119.26,119.26,0,0,1,7.35,14.44h.12c-.51-5.75-.7-11.31-.7-17.9V345h7.29v43.07h-8.12l-11.24-18.91a149.78,149.78,0,0,1-7.74-14.9l-.19.07c.31,5.56.39,11.24.39,18.34v15.4Z"/><path class="cls-1" d="M713.17,375.89l-3.7,12.21h-8.12L715.16,345h10l14,43.08h-8.44l-3.9-12.21Zm12.34-5.95-3.39-10.61c-.82-2.62-1.53-5.55-2.17-8.05h-.13c-.64,2.5-1.28,5.5-2,8.05l-3.33,10.61Z"/><polygon class="cls-1" points="745.18 345.02 753.04 345.02 753.04 381.51 770.75 381.51 770.75 388.1 745.18 388.1 745.18 345.02"/></g></g></svg>