<?xml version="1.0" encoding="UTF-8" standalone="no"?>
<svg
   version="1.0"
   width="512.000000pt"
   height="512.000000pt"
   viewBox="0 0 512.000000 512.000000"
   preserveAspectRatio="xMidYMid meet"
   id="svg8"
   sodipodi:docname="point-disconnect.svg"
   inkscape:version="1.2.2 (b0a8486541, 2022-12-01)"
   xmlns:inkscape="http://www.inkscape.org/namespaces/inkscape"
   xmlns:sodipodi="http://sodipodi.sourceforge.net/DTD/sodipodi-0.dtd"
   xmlns="http://www.w3.org/2000/svg"
   xmlns:svg="http://www.w3.org/2000/svg">
  <defs
     id="defs12" />
  <sodipodi:namedview
     id="namedview10"
     pagecolor="#ffffff"
     bordercolor="#000000"
     borderopacity="0.25"
     inkscape:showpageshadow="2"
     inkscape:pageopacity="0.0"
     inkscape:pagecheckerboard="0"
     inkscape:deskcolor="#d1d1d1"
     inkscape:document-units="pt"
     showgrid="false"
     inkscape:zoom="0.85400391"
     inkscape:cx="340.74786"
     inkscape:cy="341.33333"
     inkscape:window-width="1920"
     inkscape:window-height="1008"
     inkscape:window-x="0"
     inkscape:window-y="0"
     inkscape:window-maximized="1"
     inkscape:current-layer="svg8" />
  <g
     transform="translate(0.000000,512.000000) scale(0.100000,-0.100000)"
     fill="#07529F"
     stroke="none"
     id="g6"
     style="fill:#808080">
    <path
       d="M2360 5110 c-641 -78 -1174 -451 -1460 -1020 -128 -255 -190 -518 -190 -810 0 -246 38 -469 125 -734 235 -724 820 -1605 1623 -2445 l99 -104 110 114 c391 407 741 840 1024 1267 458 691 696 1291 716 1803 25 641 -266 1236 -785 1602 -226 160 -486 266 -762 312 -114 19 -396 27 -500 15z m475 -519 c275 -59 498 -183 694 -387 240 -248 364 -544 378 -894 9 -230 -33 -423 -137 -637 -178 -364 -493 -618 -895 -720 -138 -34 -386 -43 -537 -19 -118 20 -281 72 -383 123 -309 156 -572 458 -674 778 -56 172 -66 243 -66 450 0 165 4 202 24 285 126 513 512 897 1020 1016 160 38 412 40 576 5z"
       id="path2"
       style="fill:#808080" />
    <path
       d="M2073 4110 c-64 -13 -109 -38 -147 -80 -45 -50 -56 -92 -56 -217 l0 -103 -34 0 c-19 0 -45 -9 -60 -21 l-26 -20 0 -183 c0 -211 3 -221 75 -232 l45 -6 0 -259 0 -259 35 0 35 0 0 -74 c0 -120 23 -151 118 -163 78 -9 141 4 174 37 26 27 28 33 28 114 l0 86 300 0 300 0 0 -88 c0 -62 4 -94 15 -109 40 -57 240 -57 280 0 11 15 15 47 15 109 l0 88 40 0 40 0 0 259 0 259 45 6 c72 11 75 22 75 229 0 176 0 178 -25 202 -16 17 -35 25 -60 25 l-35 0 0 90 c0 139 -14 187 -69 240 -76 75 -67 73 -596 76 -258 1 -489 -1 -512 -6z m407 -585 l0 -285 -245 0 -245 0 0 285 0 285 245 0 245 0 0 -285z m650 0 l0 -285 -245 0 -245 0 0 285 0 285 245 0 245 0 0 -285z m-997 -466 c37 -19 57 -52 56 -94 0 -43 -10 -61 -49 -88 -72 -50 -187 25 -166 109 11 44 59 84 101 84 20 0 46 -5 58 -11z m970 -10 c39 -30 54 -87 33 -127 -29 -57 -107 -79 -156 -45 -39 27 -49 45 -50 90 0 86 105 136 173 82z"
       id="path4"
       style="fill:#808080" />
  </g>
</svg>
